<?xml version="1.0" encoding="utf-8"?>
<svg viewBox="76.19999694824219 26.399999618530273 183.8000030517578 183.8000030517578" width="183.8000030517578" height="183.8000030517578" xmlns="http://www.w3.org/2000/svg"><g transform="matrix(1, 0, 0, 1, 0, 0)"><g transform="matrix(1, 0, 0, 1, 0, 0)">
	<path class="st2" d="M121.7,38.9C95,54.6,76.8,83.5,76.2,116.6l88.8-0.1L121.7,38.9z" style="fill: rgb(171, 88, 162);"/>
</g><g transform="matrix(1, 0, 0, 1, 0, 0)">
	<path class="st3" d="M213.4,38.3C200,30.7,184.5,26.4,168,26.4c-15.6,0-30.3,3.9-43.1,10.8l43.3,77.5L213.4,38.3z" style="fill: rgb(91, 139, 200);"/>
</g><g transform="matrix(1, 0, 0, 1, 0, 0)">
	<path class="st4" d="M76.2,120.2c0.7,32.2,17.9,60.4,43.5,76.3l45.2-76.4L76.2,120.2z" style="fill: rgb(254, 194, 38);"/>
</g><g transform="matrix(1, 0, 0, 1, 0, 0)">
	<path class="st5" d="M260,116.4c-0.7-32.2-17.9-60.4-43.5-76.3l-45.2,76.4L260,116.4z" style="fill: rgb(235, 140, 74);"/>
</g><g transform="matrix(1, 0, 0, 1, 0, 0)">
	<path class="st6" d="M214.5,197.7c26.8-15.7,44.9-44.6,45.5-77.7l-88.8,0.1L214.5,197.7z" style="fill: rgb(30, 187, 174);"/>
</g><g transform="matrix(1, 0, 0, 1, 0, 0)">
	<path class="st7" d="M122.9,198.3c13.4,7.6,28.9,11.9,45.4,11.9c15.6,0,30.3-3.9,43.1-10.8l-43.3-77.5L122.9,198.3z" style="fill: rgb(238, 66, 84);"/>
</g></g></svg>